<svg width="14" height="14" viewBox="0 0 14 14" fill="none" xmlns="http://www.w3.org/2000/svg">
<path d="M7.41438 6.61523L2.42805 0.244141C2.36946 0.167969 2.27766 0.125 2.18196 0.125H0.672191C0.541332 0.125 0.469066 0.275391 0.549144 0.376953L5.73274 7L0.549144 13.623C0.53111 13.6461 0.519921 13.6737 0.516855 13.7028C0.513789 13.7319 0.51897 13.7613 0.531805 13.7875C0.544641 13.8138 0.564614 13.836 0.589439 13.8514C0.614265 13.8669 0.642942 13.8751 0.672191 13.875H2.18196C2.27766 13.875 2.36946 13.8301 2.42805 13.7559L7.41438 7.38672C7.59211 7.1582 7.59211 6.8418 7.41438 6.61523ZM13.3519 6.61523L8.36555 0.244141C8.30696 0.167969 8.21516 0.125 8.11946 0.125H6.60969C6.47883 0.125 6.40657 0.275391 6.48664 0.376953L11.6702 7L6.48664 13.623C6.46861 13.6461 6.45742 13.6737 6.45435 13.7028C6.45129 13.7319 6.45647 13.7613 6.4693 13.7875C6.48214 13.8138 6.50211 13.836 6.52694 13.8514C6.55176 13.8669 6.58044 13.8751 6.60969 13.875H8.11946C8.21516 13.875 8.30696 13.8301 8.36555 13.7559L13.3519 7.38672C13.5296 7.1582 13.5296 6.8418 13.3519 6.61523Z" fill="#0E205B"/>
</svg>
